<?xml version="1.0" encoding="UTF-8" standalone="no"?>
<svg
   xmlns:dc="http://purl.org/dc/elements/1.1/"
   xmlns:cc="http://creativecommons.org/ns#"
   xmlns:rdf="http://www.w3.org/1999/02/22-rdf-syntax-ns#"
   xmlns:svg="http://www.w3.org/2000/svg"
   xmlns="http://www.w3.org/2000/svg"
   xmlns:sodipodi="http://sodipodi.sourceforge.net/DTD/sodipodi-0.dtd"
   xmlns:inkscape="http://www.inkscape.org/namespaces/inkscape"
   inkscape:version="1.0 (4035a4f, 2020-05-01)"
   sodipodi:docname="Pancho copy.svg"
   xml:space="preserve"
   enable-background="new 0 0 246 257"
   viewBox="0 0 246 257"
   height="257px"
   width="246px"
   y="0px"
   x="0px"
   id="Layer_1"
   version="1.1"><metadata
   id="metadata414"><rdf:RDF><cc:Work
       rdf:about=""><dc:format>image/svg+xml</dc:format><dc:type
         rdf:resource="http://purl.org/dc/dcmitype/StillImage" /></cc:Work></rdf:RDF></metadata><defs
   id="defs412" /><sodipodi:namedview
   inkscape:current-layer="Layer_1"
   inkscape:window-maximized="0"
   inkscape:window-y="23"
   inkscape:window-x="0"
   inkscape:cy="128.5"
   inkscape:cx="123"
   inkscape:zoom="2.9416342"
   showgrid="false"
   id="namedview410"
   inkscape:window-height="480"
   inkscape:window-width="713"
   inkscape:pageshadow="2"
   inkscape:pageopacity="0"
   guidetolerance="10"
   gridtolerance="10"
   objecttolerance="10"
   borderopacity="1"
   bordercolor="#666666"
   pagecolor="#ffffff" />
<g
   display="none"
   id="bg">
	
		<rect
   id="rect10"
   height="283.5"
   width="387.5"
   stroke-miterlimit="10"
   stroke-width="6.6723"
   stroke="#FFFFFF"
   fill="#27AAE1"
   display="inline"
   y="-13"
   x="-69.5" />
</g>
<path
   id="path13"
   d="M37.076,103.99c0-45.287,36.713-82,82-82c45.292,0,82.004,36.713,82.004,82s-36.713,82-82.004,82  C73.788,185.99,37.076,149.277,37.076,103.99z"
   fill="#73C0EB" />
<g
   id="g34">
	
		<linearGradient
   gradientTransform="matrix(1 0 0 -1 -0.0552 256.8594)"
   y2="191.4248"
   x2="200.6357"
   y1="191.4248"
   x1="111.5762"
   gradientUnits="userSpaceOnUse"
   id="SVGID_1_">
		<stop
   id="stop15"
   style="stop-color:#FBE1EC"
   offset="0.3313" />
		<stop
   id="stop17"
   style="stop-color:#F5E1ED"
   offset="0.3568" />
		<stop
   id="stop19"
   style="stop-color:#DDE4F3"
   offset="0.4943" />
		<stop
   id="stop21"
   style="stop-color:#CDE5F7"
   offset="0.6407" />
		<stop
   id="stop23"
   style="stop-color:#C2E5F8"
   offset="0.8007" />
		<stop
   id="stop25"
   style="stop-color:#C0E7FA"
   offset="1" />
	</linearGradient>
	<path
   id="path28"
   d="M174.443,56.676c-1.787-7.543-10.324-7.346-16.875-6.353c-4.764-12.903-19.857-7.81-21.246-1.588   c-6.154-3.772-14.36-0.397-15.154,6.087c0,0-11.91,1.061-9.264,12.971s14.822,15.219,14.822,15.219l51.355,1.986l22.498,3.572   c0,0-2.248-18.66-9.926-26.865C182.979,53.5,174.443,56.676,174.443,56.676z"
   fill="url(#SVGID_1_)" />
	<g
   id="g32">
		<path
   id="path30"
   d="M176.617,56.094c-2.482-8.209-11.725-7.881-18.729-6.889c0.617,0.18,1.236,0.358,1.854,0.537    c-2.383-5.753-7.35-9.345-13.742-8.502c-4.633,0.611-10.383,2.875-11.846,7.793c1.305-0.436,2.605-0.869,3.91-1.304    c-6.91-3.671-17.393-1.048-19.064,7.391c0.83-0.472,1.659-0.942,2.488-1.415c-3.434,0.352-7.434,1.918-9.696,4.604    c-5.09,6.043-1.45,14.779,3.36,19.81c6.499,6.794,13.734,6.171,22.302,6.501c12.48,0.482,24.963,0.965,37.443,1.448    c6.801,0.263,16.34,2.354,24.332,3.625c0.928,0.147,3.697-0.292,3.521-1.702c-1.793-14.421-9.871-38.822-29.146-32.122    c-2.889,1.005-0.225,2.278,1.674,1.618c8.562-2.977,16.135,7.602,19.043,15.029c2.062,5.275,3.385,11.019,4.084,16.64    c1.174-0.567,2.348-1.134,3.52-1.702c-7.594-1.205-15.52-3.322-23.201-3.619c-9.471-0.367-18.941-0.732-28.412-1.099    c-5.488-0.212-10.977-0.425-16.467-0.638c-1.695-0.064-3.391-0.131-5.088-0.196c-2.064-0.08,0.34,0.335-1.076-0.149    c-6.25-2.142-11.155-6.941-13.257-13.203c-1.82-5.424,0.088-11.957,6.424-12.604c0.726-0.074,2.312-0.528,2.487-1.415    c1.116-5.632,6.26-7.43,11.245-4.783c1.012,0.538,3.553-0.104,3.91-1.304c0.928-3.124,4.143-4.793,7.234-4.979    c4.766-0.289,8.008,3.438,9.668,7.445c0.275,0.664,1.279,0.618,1.855,0.537c5.932-0.84,12.951-1.023,15.02,5.814    C172.699,58.678,177.033,57.469,176.617,56.094z"
   fill="#FFFFFF" />
	</g>
</g>
<g
   id="g46">
	<polygon
   id="polygon36"
   points="146.93,81.191 143.98,81.024 145.225,61.049 148.176,61.217  "
   fill="#9A8279" />
	<polygon
   id="polygon38"
   points="165.672,82.482 162.725,82.316 163.969,61.652 166.914,61.869  "
   fill="#9A8279" />
	<polygon
   id="polygon40"
   points="184.93,85.361 181.984,85.193 183.176,64.699 186.174,65.35  "
   fill="#9A8279" />
	<polygon
   id="polygon42"
   points="198.186,72.963 165.547,67.479 125,66.934 120.747,63.827 165.557,64.697 197.098,69.918  "
   fill="#9A8279" />
	<polygon
   id="polygon44"
   points="198.619,81.01 164.26,75.885 131.469,76.447 131.469,73.619 164.703,73.094 198.779,78.2  "
   fill="#9A8279" />
</g>
<path
   id="path48"
   d="M204.83,88.24c-1.516-0.506-33.619-8.637-70.756-7.932c-36.336,0.689-77.99,3.068-100,15.682l2.75,21.75  l166.005,32l8-50L204.83,88.24z"
   fill="#D6DE27" />
<polygon
   id="polygon50"
   points="34.469,91.447 201.08,139.656 166.746,188.99   79.742,188.324 40.076,142.656 "
   stroke-miterlimit="10"
   stroke="#AFD137"
   fill="#D6DE27" />
<g
   id="g54">
	<path
   id="path52"
   d="M119.471,200.16c-51.01,0-92.51-41.501-92.51-92.511c0-51.011,41.5-92.509,92.51-92.509   c51.015,0,92.515,41.498,92.515,92.509C211.986,158.659,170.486,200.16,119.471,200.16z M119.471,26.182   c-44.922,0-81.469,36.547-81.469,81.468c0,44.922,36.547,81.47,81.469,81.47c44.927,0,81.474-36.548,81.474-81.47   C200.945,62.729,164.398,26.182,119.471,26.182z"
   fill="#009247" />
</g>
<circle
   id="circle56"
   r="3.333"
   cy="174.324"
   cx="122.408"
   fill="#3AB14A" />
<circle
   id="circle58"
   r="2.084"
   cy="168.991"
   cx="137.74"
   fill="#3AB14A" />
<circle
   id="circle60"
   r="2.084"
   cy="172.99"
   cx="91.16"
   fill="#3AB14A" />
<g
   id="g70">
	<g
   id="g64">
		<path
   id="path62"
   d="M223.994,227.99c0,3.229-2.643,5.871-5.871,5.871H32.34    c-3.229,0-5.873-2.643-5.873-5.871v-34.252c0-3.23,2.644-5.873,5.873-5.873h185.783c3.229,0,5.871,2.643,5.871,5.873V227.99z"
   stroke-miterlimit="10"
   stroke="#8BC541"
   fill="#C0E7FA" />
	</g>
	<g
   id="g68">
		<path
   id="path66"
   d="M218.123,237.775H32.34c-5.396,0-9.787-4.391-9.787-9.785v-34.252c0-5.396,4.392-9.787,9.787-9.787    h185.783c5.396,0,9.785,4.391,9.785,9.787v34.252C227.908,233.385,223.52,237.775,218.123,237.775z M32.34,191.781    c-1.062,0-1.957,0.896-1.957,1.957v34.252c0,1.061,0.896,1.957,1.957,1.957h185.783c1.061,0,1.957-0.896,1.957-1.957v-34.252    c0-1.061-0.896-1.957-1.957-1.957H32.34z"
   fill="#009247" />
	</g>
</g>
<rect
   id="rect72"
   height="32.096"
   width="169.967"
   fill="none"
   y="195.99"
   x="38.742" />
<g
   id="g86"
   enable-background="new    ">
	<path
   id="path74"
   d="M52.377,214.833h-2.016v8.927h-6.443v-25.089h8.171c6.371,0,10.115,2.088,10.115,7.812   C62.204,210.189,60.584,214.833,52.377,214.833z M52.593,203.962h-2.232v5.76h1.872c2.016,0,2.952-0.54,2.952-3.275   C55.185,204.358,54.141,203.962,52.593,203.962z"
   fill="#231F20" />
	<path
   id="path76"
   d="M83.409,223.76l-1.296-4.823h-5.939l-1.368,4.823h-6.767l8.063-25.089h6.695l7.595,25.089H83.409z    M79.737,209.397c-0.252-1.044-0.432-2.447-0.468-3.384c-0.072,0.937-0.324,2.232-0.684,3.852l-1.008,4.104h3.24L79.737,209.397z"
   fill="#231F20" />
	<path
   id="path78"
   d="M111.597,223.76l-4.427-8.711c-0.648-1.296-1.404-3.096-1.944-4.716c0.144,0.973,0.36,3.276,0.36,6.372   v7.055h-6.119v-25.089h6.191l4.572,8.603c0.72,1.332,1.476,3.096,2.087,4.788c-0.18-1.477-0.216-3.96-0.216-5.615v-7.775h6.119   v25.089H111.597z"
   fill="#231F20" />
	<path
   id="path80"
   d="M139.893,224.191c-3.096,0-5.903-0.936-8.207-3.455c-1.98-2.196-2.88-5.472-2.88-9.035   c0-3.132,0.504-5.507,1.728-7.775c2.124-3.923,5.76-5.687,10.15-5.687c2.556,0,5.256,0.72,6.407,1.836l-2.735,4.751   c-1.116-0.864-2.376-1.332-3.743-1.332c-1.116,0-2.16,0.288-2.808,0.972c-1.225,1.26-1.62,2.556-1.62,5.508   c0,4.14,0.18,6.119,1.224,7.343c0.828,0.972,1.872,1.584,3.204,1.584c1.619,0,2.915-0.396,4.319-1.656l2.771,4.392   C146.119,223.112,143.563,224.191,139.893,224.191z"
   fill="#231F20" />
	<path
   id="path82"
   d="M168.8,223.76v-10.547h-5.147v10.547h-6.443v-25.089h6.443v9.215h5.147v-9.215h6.443v25.089H168.8z"
   fill="#231F20" />
	<path
   id="path84"
   d="M197.132,224.191c-7.271,0-11.303-4.823-11.303-12.346c0-8.928,4.896-13.606,11.519-13.606   c8.53,0,11.015,6.515,11.015,12.022C208.362,217.461,206.095,224.191,197.132,224.191z M197.168,203.278   c-2.916,0-4.14,3.06-4.14,7.847c0,6.407,1.548,7.991,4.211,7.991c2.736,0,3.924-1.62,3.924-8.062   C201.163,204.79,199.939,203.278,197.168,203.278z"
   fill="#231F20" />
</g>
<g
   id="g92">
	<g
   id="g90">
		<path
   id="path88"
   d="M79.301,66.319c4.326-2.817,8.721-1.211,12.354,1.653c0.394,0.31,2.043-0.463,1.827-0.635    c-4.762-3.75-10.518-4.352-15.646-1.013C77.061,66.832,78.99,66.521,79.301,66.319L79.301,66.319z"
   fill="#FFFFFF" />
	</g>
</g>
<g
   id="g117">
	
		<linearGradient
   gradientTransform="matrix(1 0 0 -1 -0.0552 256.8594)"
   y2="89.9697"
   x2="186.0322"
   y1="89.9697"
   x1="153.5293"
   gradientUnits="userSpaceOnUse"
   id="SVGID_2_">
		<stop
   id="stop94"
   style="stop-color:#E2D7AB"
   offset="0" />
		<stop
   id="stop96"
   style="stop-color:#E6DAB2"
   offset="0.1032" />
		<stop
   id="stop98"
   style="stop-color:#EFE5C7"
   offset="0.2614" />
		<stop
   id="stop100"
   style="stop-color:#F9F1DE"
   offset="0.3868" />
		<stop
   id="stop102"
   style="stop-color:#FAF3E5"
   offset="0.4845" />
		<stop
   id="stop104"
   style="stop-color:#FFFFFB"
   offset="0.6344" />
		<stop
   id="stop106"
   style="stop-color:#FFFFFF"
   offset="0.6564" />
		<stop
   id="stop108"
   style="stop-color:#FFFFFF"
   offset="1" />
	</linearGradient>
	<path
   id="path111"
   d="M170.729,160.291c-1.203,11.914-16.986,2.491-17.252,12.51c-0.277,10.412,16.664,6.98,22.998,3.646   c7.75-4.079,9.502,6.479,9.502-7.221c0-11.318-13.643-22.637-15.648-8.938"
   fill="url(#SVGID_2_)" />
	<g
   id="g115">
		<path
   id="path113"
   d="M169.443,159.936c-1.562,10.451-19.105,1.783-17.086,15.121c1.553,10.261,19.271,5.296,24.789,2.541    c2.252-1.123,4.051-0.846,6.26,0.006c1.043,0.402,1.902,0.307,2.771-0.381c1.006-0.795,0.951-2.803,1.041-3.92    c0.275-3.418,0.09-6.715-0.977-9.975c-2.773-8.47-14.797-16.373-17.199-3.395c-0.312,1.682,2.258,2.398,2.57,0.71    c0.398-2.153,0.938-5.163,3.662-5.31c2.18-0.117,4.219,2.162,5.502,3.616c3.576,4.056,4.008,9.214,3.773,14.351    c-0.139,3.061-1.328,1.111-3.977,0.816c-3.168-0.354-6.398,2.035-9.307,2.943c-3.867,1.207-8.17,1.847-12.172,1.01    c-5.463-1.145-5.707-8.133-0.199-9.176c6.035-1.145,11.986-0.711,13.115-8.252C172.266,158.963,169.697,158.24,169.443,159.936    L169.443,159.936z"
   fill="#231F20" />
	</g>
</g>
<g
   id="g142">
	
		<linearGradient
   gradientTransform="matrix(1 0 0 -1 -0.0552 256.8594)"
   y2="166.1797"
   x2="131.6786"
   y1="75.0938"
   x1="113.2773"
   gradientUnits="userSpaceOnUse"
   id="SVGID_3_">
		<stop
   id="stop119"
   style="stop-color:#E2D7AB"
   offset="0" />
		<stop
   id="stop121"
   style="stop-color:#E6DAB2"
   offset="0.0524" />
		<stop
   id="stop123"
   style="stop-color:#EFE5C7"
   offset="0.1326" />
		<stop
   id="stop125"
   style="stop-color:#F9F1DE"
   offset="0.1963" />
		<stop
   id="stop127"
   style="stop-color:#FAF3E5"
   offset="0.3631" />
		<stop
   id="stop129"
   style="stop-color:#FFFFFB"
   offset="0.6189" />
		<stop
   id="stop131"
   style="stop-color:#FFFFFF"
   offset="0.6564" />
		<stop
   id="stop133"
   style="stop-color:#FFFFFF"
   offset="1" />
	</linearGradient>
	<path
   id="path136"
   d="M61.346,89.137c0,0-9.037,0.867-7.475,12.525c1.562-1.664,0,5.827,0,5.827   s-3.859,8.567,1.225,21.065c1.691-2.221-2.604,2.777,2.604,11.66c-1.562,6.106-1.042,11.658-1.042,11.658   s-11.392,10.734-17.711,13.324c-3.388,1.389-10.979,3.064-6.772,9.994c2.865,4.719,20.838,4.997,26.567-0.557   c5.729-5.551,20.315-15.545,29.692-16.101c9.377-0.555,6.252-7.218,7.293-9.993c2.345,5.135,6.512,7.772,8.205,8.744   c-1.562-8.328,1.172-10.965,2.733-12.631c3.126,11.104,6.772,12.77,6.772,12.77c2.082-5.551,8.009-4.229,10.611-5.34   c-3.125,6.107,0.521,7.217,2.084,9.993c0,0,2.605-1.665,6.252-6.106c2.604,7.772,4.688,7.218,4.688,7.218s3.975-6.317,5.537-12.981   c2.084,7.219,5.736,10.551,5.736,10.551c0.26-3.193,1.041-6.107,2.084-7.773c0,0,0.52,3.887,9.377,6.662   c0.129-1.805-0.521-4.996,4.166-7.217c2.605,3.886-0.52,7.771,7.814,12.769c8.854,6.106,2.879,4.149,0.52,6.663   c-5.992,6.385-7.119,7.216-16.496,6.477c-2.354-0.186-9.727,2.961-6.078,10.181c3.646,7.217,17.887,5.551,26.74,2.774   c8.855-2.775,9.898-6.293,8.336-9.067c3.646-1.666,2.605-5.366,2.605-5.366c4.428,0.693,6.77,2.034,7.291,3.7   s1.043-7.589-2.082-12.029c8.334,2.499-6.252-16.655,2.082-11.104c7.814-2.774,7.295-8.188,2.605-15.961   c1.562-1.526,8.074,2.082,8.074,2.082l-8.596-12.215l7.943,1.527c0,0,10.027-3.471-4.559-14.574s-26.078-15.601-35.098-19.763   c-26.006-12-44.67,5.333-61.523-13.654c-13.936-15.7-34.397-6.28-34.397-6.28L61.346,89.137z"
   fill="url(#SVGID_3_)" />
	<g
   id="g140">
		<path
   id="path138"
   d="M61.641,88.053c-7.426,0.857-10.506,7.293-9.822,14.16c0.138,1.389,3.201,0.1,3.689-0.25    c0.109-0.078,0.219-0.158,0.329-0.235c-1.093,0.222-2.187,0.444-3.278,0.667c0.791,0.326-1.054,6.156-1.383,7.357    c-1.752,6.403-0.432,13.293,1.866,19.354c0.521,1.372,3.37,0.246,3.958-0.534c0.625-0.73,0.217-0.581-1.222,0.447    c-0.771-0.233-1.54-0.467-2.31-0.701c-0.428,1.826-0.559,3.48-0.395,5.359c0.168,1.92,0.938,3.729,1.703,5.469    c1.193,2.718-0.098,6.584-0.234,9.461c-0.05,1.061-0.021,2.131,0.02,3.191c0.024,0.656,0.848-0.574-0.414,0.584    c-2.42,2.222-4.926,4.349-7.488,6.403c-2.814,2.259-5.803,4.565-9.191,5.886c-2.522,0.98-5,1.854-7.018,3.728    c-4.251,3.95,0.348,9.073,4.412,10.382c5.75,1.85,12.474,1.331,18.234-0.148c6.437-1.654,10.862-7.088,16.201-10.724    c3.725-2.536,7.684-4.731,11.834-6.485c3.846-1.627,8.038-1.272,11.821-2.834c5.229-2.158,3.615-5.967,4.821-10.316    c-1.368,0.273-2.735,0.548-4.104,0.82c2.021,3.932,4.82,6.912,8.617,9.16c0.877,0.521,3.912-0.156,3.695-1.516    c-0.733-4.593-0.682-8.586,2.585-12.064c-1.319,0.179-2.64,0.355-3.958,0.533c1.183,3.975,2.949,11.041,7.185,13.187    c1.109,0.562,3.171-0.128,3.691-1.237c1.897-4.044,5.44-2.977,8.823-4.096c-0.77-0.233-1.539-0.467-2.309-0.701    c-2.235,5.003-0.401,6.498,2.223,10.512c0.535,0.819,2.592,0.161,3.172-0.228c2.666-1.786,4.828-4.228,6.895-6.653    c-1.318,0.18-2.639,0.355-3.959,0.534c0.936,2.606,2.564,8.374,6.447,7.752c4.695-0.754,6.949-10.808,7.883-14.338    c-1.369,0.272-2.736,0.548-4.105,0.821c1.209,3.808,2.91,7.965,5.879,10.789c0.801,0.76,3.822,0.201,3.961-1.062    c0.285-2.603,0.689-5.147,1.939-7.485c-1.32,0.178-2.639,0.355-3.959,0.533c0.729,3.967,6.688,6.02,9.789,7.078    c0.82,0.28,3.646,0.064,3.691-1.236c0.104-2.988,0.355-4.683,3.379-6.384c-1.105-0.004-2.211-0.008-3.316-0.013    c2.26,3.904,1.602,7.718,5.195,11.064c2.135,1.99,5.82,3.045,7.264,5.707c-0.182-0.336-2.539,0.773-3.256,1.412    c-1.936,1.717-3.48,3.814-5.629,5.299c-2.629,1.813-6.422,0.735-9.365,0.762c-3.354,0.029-6.793,2.09-8.6,4.836    c-2.225,3.38-0.008,8.438,3.195,10.328c4.625,2.728,10.221,2.6,15.398,2.107c5.166-0.492,25.137-3.839,20.742-12.82    c-0.266,0.369-0.529,0.74-0.793,1.111c2.371-1.449,4.08-3.531,3.396-6.479c-1.105,0.541-2.213,1.085-3.32,1.627    c2.553,0.473,5.283,0.898,6.607,3.365c0.664,1.235,2.881,0.343,3.689-0.252c2.957-2.168-0.551-11.076-1.91-13.31    c-1.061,0.622-2.119,1.244-3.18,1.866c9.078,2.262,4.635-7.266,3.119-11.443c-0.176-0.484-0.41-1.086-0.375-1.613    c-0.041,0.609-3.805,1.379-0.662,1.953c1.986,0.363,4.855-1.283,6.285-2.492c5.129-4.328,2.531-10.127-0.357-15.096    c-0.266,0.37-0.527,0.741-0.791,1.112c0.404-0.231,4.469,2.103,5.17,2.483c0.869,0.473,4.514-0.391,3.553-1.754    c-2.865-4.072-5.73-8.144-8.596-12.215c-1.061,0.623-2.119,1.244-3.18,1.866c3.746,0.72,7.986,2.563,11.516,0.493    c6.104-3.58,1.508-9.691-2.188-13.143c-8.701-8.123-20.168-13.977-30.891-18.922c-10.305-4.752-19.906-8.084-31.387-8.092    c-10.166-0.006-20.621,2.307-30.025-2.738c-5.104-2.74-8.068-7.982-12.974-10.979c-4.289-2.618-8.808-3.904-13.789-4.303    c-5.744-0.461-11.968,0.756-17.267,3c-1.592,0.675-2.482,2.49-3.467,3.818c-1.871,2.524-3.742,5.051-5.613,7.576    c-1.073,1.45,3.05,1.059,3.811,0.032c1.303-1.758,2.605-3.517,3.907-5.274c0.896-1.209,1.791-2.416,2.687-3.625    c0.791-1.07,2.01-1.729,0.153-0.891c4.923-2.221,10.698-2.846,16.011-2.211c10.426,1.245,15,9.811,23.258,14.789    c6.741,4.064,15.107,3.787,22.664,3.4c10.357-0.527,20.133-0.484,29.928,3.449c8.566,3.441,17.018,7.666,24.922,12.416    c4.098,2.463,22.557,12.284,18.854,19.397c-0.309,0.591-0.832,1.009-1.395,1.338c-1.086,0.637,2.771,0.032,1.262-0.257    c-2.48-0.477-4.959-0.953-7.439-1.43c-0.771-0.148-4.125,0.521-3.178,1.865c2.865,4.071,5.729,8.143,8.596,12.215    c1.186-0.586,2.367-1.17,3.553-1.756c-3.277-1.781-7.414-3.725-10.979-1.678c-0.248,0.145-1.033,0.697-0.791,1.111    c3.008,5.172,6.006,11.68-1.35,14.619c0.812-0.059,1.625-0.115,2.438-0.174c-1.812-1.148-6.691-2.039-6.334,1.514    c0.182,1.802,1.305,3.682,1.977,5.334c0.393,0.968,0.738,1.947,1.021,2.953c0.143,0.511,0.242,1.062,0.219,1.594    c-0.039,0.844,2.234-0.01,0.662-0.401c-0.855-0.213-4.01,0.503-3.18,1.866c1.004,1.648,3.664,10.25,2.461,11.134    c1.229-0.084,2.459-0.168,3.689-0.252c-1.67-3.11-4.885-3.808-8.182-4.419c-0.797-0.146-3.627,0.305-3.32,1.627    c0.424,1.828-0.215,3.275-1.812,4.254c-0.271,0.166-1.008,0.672-0.793,1.112c4.617,9.435-21.975,10.435-26.908,8.646    c-4.934-1.787-7.352-9.261-1.695-11.793c1.77-0.791,5.049,0.094,7.033-0.004c1.414-0.068,2.855-0.305,4.189-0.787    c3.111-1.127,5.354-3.312,7.613-5.662c1.277-1.33,4.656-1.955,5.418-3.676c1.092-2.468-6.145-6.009-7.473-7.031    c-3.695-2.844-2.824-6.981-4.908-10.586c-0.619-1.07-2.482-0.481-3.314-0.014c-3.492,1.965-4.816,4.088-4.955,8.051    c1.23-0.412,2.461-0.824,3.691-1.236c-2.832-0.969-8.309-2.668-8.965-6.246c-0.25-1.354-3.541-0.247-3.959,0.533    c-1.361,2.549-1.914,5.197-2.229,8.062c1.32-0.354,2.641-0.707,3.961-1.062c-2.863-2.723-4.426-6.629-5.594-10.311    c-0.438-1.382-3.812-0.283-4.104,0.821c-1.18,4.465-2.963,8.758-5.393,12.694c0.732-0.356,1.467-0.713,2.199-1.069    c1.234-0.198,0.342-0.245-0.387-1.144c-1.254-1.543-1.887-3.707-2.543-5.539c-0.51-1.42-3.35-0.182-3.959,0.535    c-1.664,1.954-3.465,4.123-5.607,5.559c1.059-0.074,2.115-0.15,3.172-0.227c-2.34-3.582-3.957-4.972-1.945-9.476    c0.467-1.044-1.949-0.82-2.309-0.701c-5.093,1.685-9.761,0.953-12.402,6.584c1.23-0.412,2.461-0.825,3.691-1.237    c-3.673-1.861-5.309-8.816-6.359-12.354c-0.441-1.479-3.365-0.1-3.959,0.533c-3.546,3.777-3.671,8.258-2.883,13.197    c1.232-0.506,2.463-1.012,3.695-1.517c-3.43-2.032-5.967-4.776-7.793-8.328c-0.651-1.269-3.766-0.397-4.104,0.821    c-0.396,1.43-0.232,2.947-0.305,4.414c-0.203,4.119-3.512,3.978-6.809,4.496c-6.227,0.979-12.135,4.287-17.432,7.533    c-2.783,1.707-5.443,3.627-8.023,5.627c-2.359,1.828-4.295,4.133-7.08,5.318c-5.143,2.189-14.439,2.637-19.146-0.889    c-2.847-2.133-2.163-5.996,0.583-7.609c1.981-1.165,4.359-1.695,6.417-2.752c5.112-2.621,9.636-6.736,13.911-10.51    c0.887-0.782,2.061-1.584,2.768-2.555c0.944-1.299,0.14-5.141,0.271-6.735c0.085-1.019,1.33-4.724,0.918-5.489    c-1.031-1.922-1.826-3.77-2.367-5.882c-0.519-2.028-0.285-4.019,0.182-6.009c0.261-1.117-1.803-0.819-2.312-0.701    c-0.933,0.217-1.514,0.734-2.065,1.467c1.318-0.178,2.639-0.355,3.957-0.533c-2.799-7.382-2.721-13.461-1.197-20.936    c0.66-3.244,1.427-9.393-3.717-5.708c1.23-0.084,2.461-0.167,3.69-0.251c-0.376-3.777,0.251-10.328,5.126-10.891    C63.003,89.998,64.496,87.723,61.641,88.053z"
   fill="#231F20" />
	</g>
</g>
<g
   id="g169">
	
		<linearGradient
   gradientTransform="matrix(0.9675 -0.2529 -0.2529 -0.9675 23.1111 184.1252)"
   y2="35.1499"
   x2="53.584"
   y1="35.1499"
   x1="10.3228"
   gradientUnits="userSpaceOnUse"
   id="SVGID_4_">
		<stop
   id="stop144"
   style="stop-color:#C1976B"
   offset="0.0184" />
		<stop
   id="stop146"
   style="stop-color:#E2D7AB"
   offset="0.2331" />
		<stop
   id="stop148"
   style="stop-color:#E6DAB2"
   offset="0.2691" />
		<stop
   id="stop150"
   style="stop-color:#EFE5C7"
   offset="0.3243" />
		<stop
   id="stop152"
   style="stop-color:#F9F1DE"
   offset="0.3681" />
		<stop
   id="stop154"
   style="stop-color:#FAF3E5"
   offset="0.4726" />
		<stop
   id="stop156"
   style="stop-color:#FFFFFB"
   offset="0.6329" />
		<stop
   id="stop158"
   style="stop-color:#FFFFFF"
   offset="0.6564" />
		<stop
   id="stop160"
   style="stop-color:#FFFFFF"
   offset="1" />
	</linearGradient>
	<path
   id="path163"
   d="M58.776,118.692c-1.875,6.003-2.125,12.958-4.17,18.315c-3.475,7.799-5.103,6.846-12.674,9.515   c-3.226,0.843-16.125,4.214-15.422,9.542c0.536,4.684,6.35,7.816,10.387,7.449c9.537-0.426,28.931-10.92,35.438-16.668   c11.504-10.162-3.854-27.935-18.49-20.664"
   fill="url(#SVGID_4_)" />
	<g
   id="g167">
		<path
   id="path165"
   d="M56.712,118.911c-2.017,7.063-1.422,21.298-9.489,24.611c-5.664,2.325-11.859,3.044-17.261,6.081    c-5.306,2.982-7.515,7.5-2.438,12.209c4.625,4.291,11.207,3.084,16.634,1.459c7.377-2.207,14.374-5.861,20.979-9.766    c5.148-3.043,10.903-6.496,12.903-12.443c1.974-5.869-2.276-11.786-6.8-14.987c-5.379-3.807-12.484-3.465-18.245-0.876    c-2.595,1.166-0.244,2.84,1.696,1.967c11.966-5.375,26.91,9.883,15.361,19.76c-4.447,3.805-9.957,6.658-15.149,9.268    c-5.269,2.648-10.995,5.251-16.896,5.98c-3.896,0.482-7.744-1.949-9.203-5.521c-1.363-3.335,2.981-5.227,5.301-6.283    c4.262-1.943,9.031-2.953,13.477-4.402c11.385-3.713,10.533-17.953,13.256-27.492C61.315,116.807,57.152,117.373,56.712,118.911    L56.712,118.911z"
   fill="#231F20" />
	</g>
</g>
<g
   id="g194">
	
		<linearGradient
   gradientTransform="matrix(1 0 0 -1 -0.0552 256.8594)"
   y2="167.7129"
   x2="131.6786"
   y1="76.627"
   x1="113.2773"
   gradientUnits="userSpaceOnUse"
   id="SVGID_5_">
		<stop
   id="stop171"
   style="stop-color:#E2D7AB"
   offset="0" />
		<stop
   id="stop173"
   style="stop-color:#E6DAB2"
   offset="0.0524" />
		<stop
   id="stop175"
   style="stop-color:#EFE5C7"
   offset="0.1326" />
		<stop
   id="stop177"
   style="stop-color:#F9F1DE"
   offset="0.1963" />
		<stop
   id="stop179"
   style="stop-color:#FAF3E5"
   offset="0.3631" />
		<stop
   id="stop181"
   style="stop-color:#FFFFFB"
   offset="0.6189" />
		<stop
   id="stop183"
   style="stop-color:#FFFFFF"
   offset="0.6564" />
		<stop
   id="stop185"
   style="stop-color:#FFFFFF"
   offset="1" />
	</linearGradient>
	<path
   id="path188"
   d="M61.346,87.604c0,0-9.037,0.867-7.475,12.525c1.562-1.666,0,5.826,0,5.826   s-3.859,8.568,1.225,21.066c1.691-2.221-2.604,2.775,2.604,11.658c-1.562,6.107-1.042,11.66-1.042,11.66   s-11.392,10.733-17.711,13.324c-3.388,1.387-10.979,3.063-6.772,9.993c2.865,4.72,20.838,4.997,26.567-0.556   S79.057,157.557,88.434,157c9.377-0.555,6.252-7.218,7.293-9.992c2.345,5.135,6.512,7.771,8.205,8.744   c-1.562-8.328,1.172-10.966,2.733-12.631c3.126,11.104,6.772,12.77,6.772,12.77c2.082-5.553,8.009-4.229,10.611-5.34   c-3.125,6.106,0.521,7.217,2.084,9.992c0,0,2.605-1.664,6.252-6.105c2.604,7.771,4.688,7.217,4.688,7.217s3.975-6.318,5.537-12.98   c2.084,7.217,5.736,10.549,5.736,10.549c0.26-3.192,1.041-6.106,2.084-7.772c0,0,0.52,3.888,9.377,6.662   c0.129-1.806-0.521-4.996,4.166-7.217c2.605,3.886-0.52,7.771,7.814,12.769c8.854,6.107,2.879,4.149,0.52,6.663   c-5.992,6.386-7.119,7.216-16.496,6.478c-2.354-0.187-9.727,2.961-6.078,10.18c3.646,7.217,17.887,5.551,26.74,2.775   c8.855-2.776,9.898-6.293,8.336-9.068c3.646-1.666,2.605-5.366,2.605-5.366c4.428,0.693,6.77,2.034,7.291,3.7   s1.043-7.588-2.082-12.029c8.334,2.499-6.252-16.654,2.082-11.104c7.814-2.775,7.295-8.188,2.605-15.961   c1.562-1.527,8.074,2.08,8.074,2.08l-8.596-12.213l7.943,1.526c0,0,10.027-3.471-4.559-14.573   c-14.586-11.104-26.078-15.602-35.098-19.764c-26.006-12-44.67,5.333-61.523-13.654c-13.936-15.701-34.397-6.279-34.397-6.279   L61.346,87.604z"
   fill="url(#SVGID_5_)" />
	<g
   id="g192">
		<path
   id="path190"
   d="M61.641,86.52c-7.426,0.857-10.506,7.292-9.822,14.16c0.138,1.388,3.201,0.099,3.689-0.252    c0.109-0.078,0.219-0.156,0.329-0.234c-1.093,0.223-2.187,0.445-3.278,0.667c0.791,0.327-1.054,6.157-1.383,7.358    c-1.752,6.402-0.432,13.293,1.866,19.354c0.521,1.372,3.37,0.246,3.958-0.533c0.625-0.73,0.217-0.582-1.222,0.446    c-0.771-0.233-1.54-0.468-2.31-0.701c-0.428,1.826-0.559,3.481-0.395,5.36c0.168,1.919,0.938,3.729,1.703,5.468    c1.193,2.718-0.098,6.584-0.234,9.461c-0.05,1.062-0.021,2.132,0.02,3.19c0.024,0.656,0.848-0.573-0.414,0.584    c-2.42,2.223-4.926,4.35-7.488,6.404c-2.814,2.258-5.803,4.565-9.191,5.885c-2.522,0.981-5,1.854-7.018,3.729    c-4.251,3.951,0.348,9.073,4.412,10.383c5.75,1.85,12.474,1.33,18.234-0.15c6.437-1.653,10.862-7.088,16.201-10.723    c3.725-2.535,7.684-4.731,11.834-6.486c3.846-1.625,8.038-1.271,11.821-2.834c5.229-2.157,3.615-5.965,4.821-10.315    c-1.368,0.272-2.735,0.548-4.104,0.821c2.021,3.931,4.82,6.91,8.617,9.16c0.877,0.52,3.912-0.157,3.695-1.516    c-0.733-4.594-0.682-8.587,2.585-12.066c-1.319,0.18-2.64,0.357-3.958,0.535c1.183,3.974,2.949,11.039,7.185,13.186    c1.109,0.562,3.171-0.128,3.691-1.236c1.897-4.045,5.44-2.977,8.823-4.097c-0.77-0.233-1.539-0.467-2.309-0.701    c-2.235,5.003-0.401,6.498,2.223,10.511c0.535,0.82,2.592,0.162,3.172-0.227c2.666-1.786,4.828-4.229,6.895-6.652    c-1.318,0.178-2.639,0.355-3.959,0.533c0.936,2.607,2.564,8.374,6.447,7.752c4.695-0.754,6.949-10.809,7.883-14.338    c-1.369,0.273-2.736,0.548-4.105,0.82c1.209,3.809,2.91,7.967,5.879,10.789c0.801,0.762,3.822,0.203,3.961-1.061    c0.285-2.602,0.689-5.146,1.939-7.486c-1.32,0.18-2.639,0.356-3.959,0.535c0.729,3.967,6.688,6.019,9.789,7.078    c0.82,0.279,3.646,0.064,3.691-1.238c0.104-2.987,0.355-4.682,3.379-6.383c-1.105-0.004-2.211-0.008-3.316-0.013    c2.26,3.903,1.602,7.718,5.195,11.065c2.135,1.99,5.82,3.045,7.264,5.707c-0.182-0.338-2.539,0.772-3.256,1.41    c-1.936,1.719-3.48,3.815-5.629,5.299c-2.629,1.814-6.422,0.736-9.365,0.764c-3.354,0.029-6.793,2.089-8.6,4.835    c-2.225,3.38-0.008,8.438,3.195,10.328c4.625,2.728,10.221,2.601,15.398,2.106c5.166-0.49,25.137-3.838,20.742-12.82    c-0.266,0.371-0.529,0.742-0.793,1.113c2.371-1.451,4.08-3.531,3.396-6.479c-1.105,0.542-2.213,1.084-3.32,1.627    c2.553,0.474,5.283,0.897,6.607,3.364c0.664,1.236,2.881,0.344,3.689-0.25c2.957-2.17-0.551-11.077-1.91-13.311    c-1.061,0.622-2.119,1.244-3.18,1.866c9.078,2.263,4.635-7.267,3.119-11.442c-0.176-0.485-0.41-1.086-0.375-1.615    c-0.041,0.611-3.805,1.381-0.662,1.955c1.986,0.363,4.855-1.284,6.285-2.492c5.129-4.329,2.531-10.127-0.357-15.096    c-0.266,0.369-0.527,0.74-0.791,1.111c0.404-0.232,4.469,2.104,5.17,2.484c0.869,0.472,4.514-0.391,3.553-1.756    c-2.865-4.07-5.73-8.143-8.596-12.213c-1.061,0.621-2.119,1.244-3.18,1.865c3.746,0.721,7.986,2.563,11.516,0.493    c6.104-3.58,1.508-9.692-2.188-13.144c-8.701-8.123-20.168-13.975-30.891-18.92c-10.305-4.754-19.906-8.084-31.387-8.092    c-10.166-0.006-20.621,2.307-30.025-2.74c-5.104-2.738-8.068-7.981-12.974-10.978c-4.289-2.618-8.808-3.903-13.789-4.303    c-5.744-0.46-11.968,0.756-17.267,3c-1.592,0.675-2.482,2.489-3.467,3.817c-1.871,2.525-3.742,5.052-5.613,7.578    c-1.073,1.449,3.05,1.059,3.811,0.031c1.303-1.758,2.605-3.518,3.907-5.273c0.896-1.209,1.791-2.418,2.687-3.627    c0.791-1.068,2.01-1.728,0.153-0.89c4.923-2.221,10.698-2.846,16.011-2.211c10.426,1.245,15,9.812,23.258,14.789    c6.741,4.063,15.107,3.787,22.664,3.401c10.357-0.528,20.133-0.485,29.928,3.449c8.566,3.44,17.018,7.664,24.922,12.414    c4.098,2.463,22.557,12.285,18.854,19.398c-0.309,0.591-0.832,1.009-1.395,1.338c-1.086,0.637,2.771,0.033,1.262-0.257    c-2.48-0.478-4.959-0.953-7.439-1.431c-0.771-0.148-4.125,0.521-3.178,1.867c2.865,4.07,5.729,8.143,8.596,12.213    c1.186-0.584,2.367-1.17,3.553-1.754c-3.277-1.781-7.414-3.726-10.979-1.679c-0.248,0.144-1.033,0.698-0.791,1.112    c3.008,5.172,6.006,11.679-1.35,14.619c0.812-0.059,1.625-0.116,2.438-0.174c-1.812-1.149-6.691-2.039-6.334,1.514    c0.182,1.801,1.305,3.681,1.977,5.334c0.393,0.968,0.738,1.945,1.021,2.951c0.143,0.512,0.242,1.062,0.219,1.595    c-0.039,0.845,2.234-0.011,0.662-0.401c-0.855-0.213-4.01,0.504-3.18,1.866c1.004,1.647,3.664,10.25,2.461,11.134    c1.229-0.084,2.459-0.168,3.689-0.252c-1.67-3.109-4.885-3.808-8.182-4.418c-0.797-0.148-3.627,0.303-3.32,1.627    c0.424,1.827-0.215,3.275-1.812,4.254c-0.271,0.166-1.008,0.672-0.793,1.111c4.617,9.436-21.975,10.436-26.908,8.646    s-7.352-9.262-1.695-11.793c1.77-0.791,5.049,0.093,7.033-0.004c1.414-0.069,2.855-0.306,4.189-0.789    c3.111-1.125,5.354-3.312,7.613-5.66c1.277-1.33,4.656-1.957,5.418-3.678c1.092-2.467-6.145-6.008-7.473-7.029    c-3.695-2.844-2.824-6.982-4.908-10.588c-0.619-1.069-2.482-0.48-3.314-0.012c-3.492,1.965-4.816,4.088-4.955,8.051    c1.23-0.412,2.461-0.826,3.691-1.237c-2.832-0.97-8.309-2.668-8.965-6.246c-0.25-1.354-3.541-0.247-3.959,0.534    c-1.361,2.549-1.914,5.197-2.229,8.061c1.32-0.354,2.641-0.707,3.961-1.061c-2.863-2.723-4.426-6.631-5.594-10.311    c-0.438-1.383-3.812-0.283-4.104,0.82c-1.18,4.465-2.963,8.758-5.393,12.693c0.732-0.355,1.467-0.713,2.199-1.068    c1.234-0.197,0.342-0.245-0.387-1.145c-1.254-1.541-1.887-3.705-2.543-5.537c-0.51-1.422-3.35-0.182-3.959,0.533    c-1.664,1.955-3.465,4.125-5.607,5.561c1.059-0.075,2.115-0.15,3.172-0.227c-2.34-3.582-3.957-4.973-1.945-9.477    c0.467-1.043-1.949-0.82-2.309-0.701c-5.093,1.686-9.761,0.953-12.402,6.584c1.23-0.412,2.461-0.824,3.691-1.236    c-3.673-1.862-5.309-8.817-6.359-12.354c-0.441-1.479-3.365-0.099-3.959,0.534c-3.546,3.775-3.671,8.257-2.883,13.195    c1.232-0.504,2.463-1.01,3.695-1.516c-3.43-2.031-5.967-4.775-7.793-8.328c-0.651-1.268-3.766-0.396-4.104,0.821    c-0.396,1.431-0.232,2.946-0.305,4.414c-0.203,4.12-3.512,3.978-6.809,4.496c-6.227,0.979-12.135,4.288-17.432,7.534    c-2.783,1.705-5.443,3.627-8.023,5.625c-2.359,1.83-4.295,4.134-7.08,5.32c-5.143,2.188-14.439,2.635-19.146-0.89    c-2.847-2.132-2.163-5.996,0.583-7.608c1.981-1.166,4.359-1.697,6.417-2.752c5.112-2.621,9.636-6.736,13.911-10.511    c0.887-0.782,2.061-1.584,2.768-2.556c0.944-1.299,0.14-5.139,0.271-6.734c0.085-1.018,1.33-4.725,0.918-5.488    c-1.031-1.922-1.826-3.77-2.367-5.883c-0.519-2.027-0.285-4.018,0.182-6.009c0.261-1.117-1.803-0.819-2.312-0.701    c-0.933,0.218-1.514,0.734-2.065,1.468c1.318-0.179,2.639-0.356,3.957-0.535c-2.799-7.381-2.721-13.461-1.197-20.935    c0.66-3.243,1.427-9.392-3.717-5.708c1.23-0.084,2.461-0.167,3.69-0.251c-0.376-3.776,0.251-10.327,5.126-10.892    C63.003,88.463,64.496,86.189,61.641,86.52z"
   fill="#231F20" />
	</g>
</g>
<g
   id="g213">
	
		<linearGradient
   gradientTransform="matrix(1 0 0 -1 -0.0552 256.8594)"
   y2="140.2227"
   x2="172.4641"
   y1="150.2227"
   x1="212.4639"
   gradientUnits="userSpaceOnUse"
   id="SVGID_6_">
		<stop
   id="stop196"
   style="stop-color:#F9F1DE"
   offset="0" />
		<stop
   id="stop198"
   style="stop-color:#FAF3E5"
   offset="0.2379" />
		<stop
   id="stop200"
   style="stop-color:#FFFFFB"
   offset="0.6028" />
		<stop
   id="stop202"
   style="stop-color:#FFFFFF"
   offset="0.6564" />
		<stop
   id="stop204"
   style="stop-color:#FFFFFF"
   offset="1" />
	</linearGradient>
	<path
   id="path207"
   d="M181.414,110.49c11.232-2,12,5.5,15.25,13.5c5.484,13.5,23.082,13.666,36.082,2.333   c-9.287,0.167-17-3.667-17-3.667c17.473,5.333,26.619-13.143,19.131-10.477c-7.488,2.668-10.607,2-22.465-2   c-0.484-0.164,18.334,0.811,16.994-14.666c-4,2.666-8.668,4-12.668,4c7.334-2,7.334-10,4-15.334   c-2.824,10.477-12.824,10.143-16.492,9.311c-5.332-1.168-8.5-6.5-18.043-7.311c-21.381-1.813-22.465,16-22.465,16"
   fill="url(#SVGID_6_)" />
	<g
   id="g211">
		<path
   id="path209"
   d="M180.922,111.566c8.344-1.207,10.172,5.682,12.557,12.02c1.955,5.203,5.375,8.832,10.545,10.892    c10.465,4.171,23.264-1.671,31.213-8.326c0.699-0.587-0.184-0.987-0.727-0.992c-5.494-0.044-11.197-1.038-16.188-3.452    c-1.605,0.682-3.211,1.362-4.816,2.045c9.014,2.471,21.992,0.09,26.328-9.32c1.305-2.83-0.803-4.047-3.443-3.576    c-3.043,0.542-5.66,1.869-8.844,1.707c-1.375-0.07-12.396-3.006-12.426-2.857c-1.293,0.541-2.584,1.084-3.877,1.625    c10.105-1.007,21.566-4.095,20.9-16.549c-0.072-1.35-4.377,0.314-4.848,0.607c-2.957,1.83-5.906,2.841-9.389,2.968    c-0.068,0.614-0.139,1.229-0.207,1.845c7.766-2.634,9.793-9.727,5.773-16.754c-0.713-1.247-5.059-0.023-5.441,1.199    c-3.145,9.998-10.92,8.888-18.191,4.385c-6.744-4.175-15.301-5.289-22.973-3.208c-8.158,2.213-15.24,8.183-15.869,17.093    c-0.062,0.885,5.355,0.229,5.477-1.469c0.211-2.984,1.549-5.958,3.182-8.411c5.564-8.36,17.561-6.554,25.033-2.104    c4.879,2.904,9.115,4.822,14.928,3.85c6.623-1.107,11.75-4.461,13.824-11.064c-1.814,0.398-3.629,0.799-5.443,1.199    c2.455,4.293,3.9,11.836-2.227,13.913c-1.59,0.54-2.559,1.931-0.207,1.845c5.75-0.209,11.074-2.016,15.949-5.031    c-1.617,0.201-3.23,0.404-4.848,0.607c0.479,8.981-5.314,11.988-13.084,12.762c-0.852,0.084-3.645,0.477-3.875,1.623    c-0.002,0.004-0.002,0.008-0.002,0.012c-0.08,0.393,0.102,0.509,0.465,0.63c8.451,2.833,15.84,4.96,24.52,1.985    c0.613-0.211-1.576,4.297-2.242,5.052c-3.824,4.332-9.162,4.704-14.463,3.25c-1.072-0.294-5.805,1.565-4.816,2.045    c5.512,2.667,11.729,3.833,17.812,3.881c-0.242-0.331-0.482-0.661-0.727-0.991c-10.33,8.65-25.686,9.875-31.305-4.378    c-1.467-3.719-2.486-7.629-5.27-10.624c-2.916-3.138-7.996-2.627-11.777-2.08C179.643,109.741,177.072,112.123,180.922,111.566    L180.922,111.566z" />
	</g>
</g>
<g
   id="g217">
	<path
   id="path215"
   d="M50.87,68.764c-3.984,3.679-9.794,4.227-12.794,10.56c-0.929,1.958-1.024,5.188-1.333,7.333   c-0.611,2.451,0.945,9.549,0.333,12c3,0.584,3.708,1.875,8.125,1.209c1,3.25,1.942,6.355,2.25,8.5   c3.371-0.613,2.924-1.557,5.375-1.25c1.03,0,2.539,4.096,4.375,4.25c2.532,0.211,5.603-3.857,6.846-3.68   c5.212,0.918,11.032,1.838,15.63-3.678c3.371-3.984,4.291-9.808,7.049-14.404c2.758-4.902,6.129-8.887,7.967-14.403   c-7.354-4.29-19.918-4.903-28.5-6.741c-5.209-1.227-11.646-3.063-16.547,0.613"
   fill="#FFFFFF" />
</g>
<g
   id="g227">
	<path
   id="path219"
   d="M149.678,182.674c0,0,3.5-2.75,10.25-2.25"
   stroke-width="1.4173"
   stroke="#231F20"
   fill="#FFFFFF" />
	<g
   id="g225">
		<g
   id="g223">
			<path
   id="path221"
   d="M150.15,186.881c3.078-0.199,6.072-1.75,9.154-1.485c0.668,0.058,1.404-0.084,1.938-0.519     c0.406-0.334,0.346-0.822-0.234-0.873c-3.451-0.297-6.395,1.225-9.76,1.44c-0.619,0.04-1.408,0.194-1.814,0.724     C149.051,186.67,149.758,186.905,150.15,186.881L150.15,186.881z"
   fill="#231F20" />
		</g>
	</g>
</g>
<path
   id="path229"
   d="M154.332,172.592c0,0,3.723-1.614,10.9-1.321"
   stroke-width="1.1201"
   stroke="#231F20"
   fill="#FFFFFF" />
<g
   id="g239">
	<path
   id="path231"
   d="M33.084,169.965c0,0,3.5-2.75,10.25-2.25"
   stroke-width="1.4173"
   stroke="#231F20"
   fill="#FFFFFF" />
	<g
   id="g237">
		<g
   id="g235">
			<path
   id="path233"
   d="M33.559,174.172c3.076-0.199,6.071-1.75,9.152-1.485c0.667,0.058,1.404-0.084,1.936-0.519     c0.408-0.334,0.348-0.822-0.233-0.873c-3.448-0.297-6.394,1.225-9.759,1.44c-0.62,0.04-1.409,0.194-1.814,0.724     C32.458,173.961,33.165,174.196,33.559,174.172L33.559,174.172z"
   fill="#231F20" />
		</g>
	</g>
</g>
<g
   id="g249">
	<path
   id="path241"
   d="M28.682,157.123c0,0,3.5-2.75,10.25-2.25"
   stroke-width="1.4173"
   stroke="#231F20"
   fill="#FFFFFF" />
	<g
   id="g247">
		<g
   id="g245">
			<path
   id="path243"
   d="M29.156,161.33c3.075-0.199,6.071-1.75,9.153-1.486c0.666,0.059,1.403-0.084,1.936-0.519     c0.407-0.333,0.348-0.821-0.234-0.872c-3.449-0.297-6.394,1.225-9.759,1.44c-0.62,0.04-1.409,0.194-1.813,0.724     C28.055,161.118,28.762,161.354,29.156,161.33L29.156,161.33z"
   fill="#231F20" />
		</g>
	</g>
</g>
<path
   id="path251"
   d="M124.703,154.444c1.281-5.272,3.254-7.59,6.146-11.942c3.025-4.552,4.062-7.566,2.188-12.725  c-0.666-1.833-2.791-3.344-2.5-2.5c4.076,11.833-7.171,14.807-9.5,28.752c-0.083,0.5,1.441,0.337,1.645-0.496L124.703,154.444z"
   fill="#231F20" />
<path
   id="path253"
   d="M154.537,154.08c-4.084-3.5-2.902-11.258-1.539-15.521c0.191-0.598-1.535-0.229-1.924,0.271  c-3.621,4.656-0.246,6.031-4.121,15.781c-0.213,0.534,7.998,1.441,7.25,1.084L154.537,154.08z"
   fill="#231F20" />
<path
   id="path255"
   d="M166.17,151.853c-2.566-6.429-1.156-14.21,1.488-20.401c0.166-0.388-2.484,2.227-2.705,2.744  c-2.648,6.197-4.572,12.143-2,18.584C163.156,153.289,166.336,152.268,166.17,151.853L166.17,151.853z"
   fill="#231F20" />
<g
   id="g261">
	<g
   id="g259">
		<path
   id="path257"
   d="M179.578,116.139c4.768,1.709,7.018,6.594,7.988,11.24c0.484,2.315,0.443,4.738-0.055,7.043    c-0.494,2.278-4.367,7.11-6.273,2.748c-1.07-2.449,3.559-3.729,4.799-3.504c2.162,0.393,2.859,2.908,3.119,4.729    c0.648,4.583-1.615,10.006-4.691,13.321c-0.566,0.61,2.035,0.265,2.477-0.211c3.645-3.93,8.068-13.938,2.744-18.273    c-3.223-2.624-11.01,0.369-11.186,4.672c-0.098,2.385,5.336,1.749,6.652,1.453c2.734-0.614,4.314-2.872,5.061-5.421    c1.979-6.784-1.484-16.378-8.383-18.853C181.221,114.865,178.771,115.85,179.578,116.139L179.578,116.139z"
   fill="#E0CC8F" />
	</g>
</g>
<path
   id="path263"
   d="M99.426,149.289c-2.939-3.15-5.723-12.941-4.806-17.094c0.192-0.869-2.021,2.354-2.333,3.084  c-2,4.667,0.389,7.928,1.5,14.833c0.126,0.786,2.383-0.166,1.777-0.813L99.426,149.289z"
   fill="#231F20" />
<path
   id="path265"
   d="M165.082,98.523"
   fill="#E0CC8F" />
<g
   id="g271">
	<g
   id="g269">
		<path
   id="path267"
   d="M131.75,108.416c14.211,6.975,14.49,25.34,4.713,36.289c-0.584,0.655,2.041,0.309,2.484-0.188    c9.945-11.141,9.955-29.891-4.619-37.045C133.598,107.115,131.402,108.244,131.75,108.416L131.75,108.416z"
   fill="#E0CC8F" />
	</g>
</g>
<g
   id="g286">
	<linearGradient
   y2="91.3965"
   x2="113.3296"
   y1="56.0635"
   x1="98.6631"
   gradientUnits="userSpaceOnUse"
   id="SVGID_7_">
		<stop
   id="stop273"
   style="stop-color:#58595B"
   offset="0" />
		<stop
   id="stop275"
   style="stop-color:#A6A8AB"
   offset="0.1166" />
		<stop
   id="stop277"
   style="stop-color:#FFFFFF"
   offset="1" />
	</linearGradient>
	<path
   id="path280"
   d="M112.833,58.333c4.866-1.484,13.69,3.078,15.865,8.15c2.853,6.651-2.559,14.944,0.737,21.762   c-2.527-1.418-3.994-4.728-5.07-7.225c-2.789,4.956-6.519,13.175-3.815,18.579c-3.367-1.349-5.976-7.701-6.383-10.933   c-4.933,0.565-7.614,7.463-8,13.333c-3.085-1.298-3.794-6.482-4.098-9.599c-6.324,1.92-6.379,7.161-3.304,11.831   C87.5,103,84.355,84.053,93.5,68.667c6.726-11.316,7.539-10.264,21.333-11.001"
   fill="url(#SVGID_7_)" />
	<g
   id="g284">
		<path
   id="path282"
   d="M113.103,59.339c6.137-1.34,13.172,4.828,14.282,10.435c1.281,6.469-2.573,12.538-0.002,19.021    c1.32-0.45,2.641-0.899,3.962-1.348c-2.494-1.749-3.726-4.237-4.926-6.977c-0.56-1.278-3.435-0.445-3.963,0.518    c-3.11,5.664-6.563,12.708-3.96,19.162c1.23-0.511,2.46-1.022,3.691-1.533c-3.616-1.955-5.304-6.663-5.967-10.5    c-0.151-0.873-1.812-0.567-2.323-0.456c-6.788,1.48-9.19,8.357-9.782,14.603c1.229-0.416,2.459-0.831,3.689-1.246    c-3.026-1.767-3.349-6.034-3.682-9.166c-0.113-1.062-2.367-0.457-2.859-0.274c-6.559,2.432-7.947,7.562-4.407,13.453    c1.057-0.633,2.113-1.266,3.17-1.898c-12.184-1.931-10.479-19.437-7.724-27.777c1.605-4.861,4.639-10.385,8.295-14.083    c3.098-3.133,9.451-2.256,13.433-2.459c1.48-0.075,4.366-2.433,1.607-2.293c-5.011,0.255-11.122-0.269-15.695,2.232    c-4.678,2.559-7.819,8.287-9.981,12.926c-4.576,9.82-7.684,31.242,7.542,33.655c0.865,0.137,4.041-0.449,3.17-1.898    c-2.335-3.886-2.905-8.316,2.201-10.209c-0.953-0.091-1.906-0.183-2.859-0.274c0.403,3.785,0.966,7.959,4.515,10.031    c0.842,0.492,3.575-0.039,3.689-1.246c0.373-3.929,1.427-11.019,6.218-12.063c-0.774-0.152-1.549-0.304-2.323-0.456    c0.743,4.297,2.798,9.202,6.8,11.365c0.751,0.406,4.235-0.185,3.691-1.533c-2.442-6.055,0.757-12.689,3.671-17.996    c-1.321,0.172-2.642,0.345-3.963,0.518c1.267,2.892,2.565,5.614,5.216,7.472c0.791,0.555,4.559,0.155,3.963-1.348    c-3.111-7.842,2.981-16.512-1.99-23.877c-3.45-5.112-11.063-7.774-16.936-6.491C110.057,57.875,110.639,59.877,113.103,59.339    L113.103,59.339z"
   fill="#231F20" />
	</g>
</g>
<g
   id="g303">
	<linearGradient
   y2="44.8148"
   x2="38.0593"
   y1="50.1328"
   x1="62.877"
   gradientUnits="userSpaceOnUse"
   id="SVGID_8_">
		<stop
   id="stop288"
   style="stop-color:#58595B"
   offset="0" />
		<stop
   id="stop290"
   style="stop-color:#929497"
   offset="0.1166" />
		<stop
   id="stop292"
   style="stop-color:#DDDFE0"
   offset="0.5337" />
		<stop
   id="stop294"
   style="stop-color:#FFFFFF"
   offset="1" />
	</linearGradient>
	<path
   id="path297"
   d="M65.5,34.333c-2.994-13.146-23.701-13.568-30.035-2.876c-6.537,11.036,0.323,23.482-8.965,34.877   c6.333,1.666,7.747-5.397,10.901-9.131c0.208,3.622,0.017,7.42,0.2,11.062c3.246-1.366,1.457-4.134,4.232-6.265   c0,0-0.333,2.334,3,4.334"
   fill="url(#SVGID_8_)" />
	<g
   id="g301">
		<path
   id="path299"
   d="M66.949,33.945c-2.996-11.069-16.067-13.141-25.428-9.203c-5.161,2.171-8.62,7.063-9.816,12.435    c-2.219,9.962,0.156,19.967-6.427,28.69c-0.545,0.723-0.073,1.421,0.735,1.569c7.186,1.316,8.994-5.09,12.613-9.766    c-0.898-0.124-1.796-0.248-2.695-0.372c0.149,3.687,0.071,7.375,0.2,11.062c0.036,1.031,1.359,1.274,2.128,0.813    c2.923-1.751,2.534-4.42,4.799-6.706c-0.898-0.124-1.797-0.248-2.695-0.372c-0.149,2.301,1.666,3.89,3.362,5.104    c1.106,0.792,3.604-0.738,2.219-1.729c-1.11-0.794-2.742-1.946-2.638-3.564c0.098-1.505-2.063-1.01-2.695-0.372    c-1.594,1.607-1.769,4.687-3.666,5.823c0.709,0.271,1.419,0.542,2.128,0.813c-0.128-3.687-0.05-7.375-0.2-11.062    c-0.056-1.371-2.041-1.218-2.695-0.372c-2.515,3.249-4.088,9.431-9.19,8.496c0.245,0.523,0.49,1.046,0.735,1.569    c3.806-5.042,5.257-10.419,5.688-16.656c0.474-6.855,0.024-14.07,4.426-19.857c6.719-8.834,23.291-6.371,26.215,4.433    C64.432,36.129,67.33,35.352,66.949,33.945L66.949,33.945z"
   fill="#231F20" />
	</g>
</g>
<g
   id="g320"
   opacity="0.25">
	<radialGradient
   gradientUnits="userSpaceOnUse"
   r="20.8808"
   cy="45.5869"
   cx="44.5"
   id="SVGID_9_">
		<stop
   id="stop305"
   style="stop-color:#9A8479"
   offset="0" />
		<stop
   id="stop307"
   style="stop-color:#A08B81;stop-opacity:0.8649"
   offset="0.1351" />
		<stop
   id="stop309"
   style="stop-color:#B09F96;stop-opacity:0.6571"
   offset="0.3429" />
		<stop
   id="stop311"
   style="stop-color:#CBBFBA;stop-opacity:0.4025"
   offset="0.5975" />
		<stop
   id="stop313"
   style="stop-color:#EFECEA;stop-opacity:0.1134"
   offset="0.8866" />
		<stop
   id="stop315"
   style="stop-color:#FFFFFF;stop-opacity:0"
   offset="1" />
	</radialGradient>
	<path
   id="path318"
   d="M64,33.831c-2.994-13.146-23.701-13.568-30.035-2.876C27.428,41.991,34.288,54.438,25,65.832   c6.333,1.666,7.747-5.397,10.901-9.131c0.208,3.622,0.017,7.42,0.2,11.062c3.246-1.366,1.457-4.134,4.232-6.265   c0,0-0.333,2.334,3,4.334"
   fill="url(#SVGID_9_)" />
</g>
<g
   id="g345">
	
		<linearGradient
   gradientTransform="matrix(1 0 0 -1 -0.0552 256.8594)"
   y2="197.0391"
   x2="79.7924"
   y1="218.8506"
   x1="91.7368"
   gradientUnits="userSpaceOnUse"
   id="SVGID_10_">
		<stop
   id="stop322"
   style="stop-color:#E2D7AB"
   offset="0" />
		<stop
   id="stop324"
   style="stop-color:#E6DAB2"
   offset="0.0524" />
		<stop
   id="stop326"
   style="stop-color:#EFE5C7"
   offset="0.1326" />
		<stop
   id="stop328"
   style="stop-color:#F9F1DE"
   offset="0.1963" />
		<stop
   id="stop330"
   style="stop-color:#FAF3E5"
   offset="0.3631" />
		<stop
   id="stop332"
   style="stop-color:#FFFFFB"
   offset="0.6189" />
		<stop
   id="stop334"
   style="stop-color:#FFFFFF"
   offset="0.6564" />
		<stop
   id="stop336"
   style="stop-color:#FFFFFF"
   offset="1" />
	</linearGradient>
	<path
   id="path339"
   d="M50.41,73.323c-2.334-10.333-2.34-19.853,4.386-25.415c-1.482-0.598-0.472-1.756-1.628-2.738   c3.507-1,2.167-2.328,4.903-3.983c-1.155-0.981,0.255-2.888-0.516-3.544c4.104-2.482,10.037-0.092,15.141,0.934   c-1.155-0.982-2.04-3.064-3.196-4.048c5.203-2.213,7.418-1.463,12.629,2.828c0,0,1.716,3.247,3.83,2.144   c5.976-1.531,8.533,1.776,8.533,1.776c0.89,0.155,1.735,3.301,2.805,3.435c2.62,0.323,5.58,2.969,7.05,3.373   c-1.42-0.131-0.615,2.073-0.781,3.74c3.834,0.5,8.834,4.667,9.666,10c-5-2.5-6.709-1.263-8.635-0.164   c-1.199,0.688,4.469,3.664,3.273,7.107c-0.46,1.379-3.548,3.869-4.646,3.599c1.354,7.875-7.146,13.625-16.146,18.125"
   fill="url(#SVGID_10_)" />
	<g
   id="g343">
		<path
   id="path341"
   d="M53.147,72.59c-1.762-8.209-2.938-17.752,3.918-23.957c0.447-0.404,0.777-1.412,0.246-1.9    c-0.485-0.446-1.258-2.12-1.629-2.738c-0.443,0.893-0.889,1.785-1.332,2.678c2.686-1.019,3.348-2.72,5.51-4.338    c0.818-0.611,1.22-1.384,0.726-2.324c-0.475-0.905,0.062-2.092-0.292-3.103c-0.52,0.746-1.037,1.491-1.556,2.235    c3.78-1.78,8.584,0.363,12.354,1.195c1.192,0.262,5.971-0.896,4.118-2.938c-1.165-1.285-2.03-2.765-3.196-4.048    c-0.443,0.893-0.889,1.785-1.332,2.677c4.332-1.7,7.328,0.873,10.054,3.987c2.364,2.701,5.44,0.873,8.392,1.033    c2.633,0.144,3.754,2.598,5.037,4.441c0.594,0.854,1.975,1.094,2.859,1.314c1.976,0.496,3.814,2.216,5.719,3.039    c0.141-1.088,0.279-2.178,0.42-3.266c-2.703,1.145-2.378,2.817-2.363,5.483c0.004,0.725,0.396,1.362,1.162,1.522    c4.541,0.957,7.521,4.571,8.53,8.971c1.446-0.832,2.894-1.664,4.341-2.496c-4.064-1.838-8.225-2.276-12.025,0.449    c-0.959,0.688-1.558,1.959-0.731,2.998c0.515,0.646,1.081,1.238,1.642,1.848c1.024,1.113,2.504,4.818-0.222,5.119    c-1.378,0.152-3.183,0.99-3.011,2.625c0.859,8.179-8.5,12.783-14.592,15.89c-3.342,1.705-0.324,4.376,2.365,3.004    c7.971-4.063,18.801-9.905,17.702-20.36c-1.004,0.875-2.008,1.75-3.011,2.625c3.527-0.389,7.261-3.125,7.852-6.748    c0.268-1.633-1.106-3.356-2.056-4.506c-1.356-1.643-0.651-1.17-2.329-0.207c1.77-1.015,3.566,0.047,5.211,0.791    c1.43,0.646,4.79-0.535,4.342-2.498c-1.234-5.383-5.304-9.871-10.803-11.029c0.389,0.509,0.775,1.017,1.163,1.523    c-0.006-1.105-0.112-2.355,0.084-3.445c-0.528,0.58-1.056,1.16-1.583,1.742c0.232-0.099,0.465-0.197,0.697-0.295    c1.595-0.676,2.234-2.48,0.42-3.266c-1.975-0.854-3.739-2.157-5.719-3.038c-1.688-0.751-2.284-2.21-3.481-3.46    c-1.862-1.943-4.965-2.811-7.591-2.619c-2.156,0.157-3.137,1.03-4.376-0.787c-1.146-1.676-3.544-2.939-5.31-3.886    c-3.646-1.953-7.545-0.921-11.154,0.496c-0.873,0.342-2.227,1.692-1.334,2.677c1.166,1.285,2.033,2.764,3.197,4.049    c1.373-0.979,2.744-1.959,4.117-2.938c-6.049-1.333-11.986-3.472-17.926-0.671c-0.738,0.348-1.9,1.25-1.557,2.236    c0.525,1.494-0.041,2.494,0.74,3.983c0.241-0.774,0.483-1.55,0.726-2.325c-1.419,1.062-2.632,3-4.298,3.633    c-1.074,0.406-1.989,1.576-1.332,2.676c1.005,1.681,0.299,1.519,1.628,2.738c0.082-0.634,0.163-1.267,0.245-1.9    c-7.709,6.977-6.853,17.561-4.854,26.875C48.186,76.455,53.672,75.037,53.147,72.59L53.147,72.59z"
   fill="#231F20" />
	</g>
</g>
<g
   id="g351">
	<g
   id="g349">
		<path
   id="path347"
   d="M47.641,73.383c-1.942,1.764-4.381,2.828-6.261,4.697c-2.549,2.532-2.907,6.067-2.602,9.471    c0.153,1.707,4.272,0.746,4.106-1.102c-0.27-2.999,0.144-5.949,2.563-7.977c1.772-1.482,3.858-2.496,5.582-4.059    c0.705-0.64,0.344-1.558-0.485-1.81C49.52,72.293,48.408,72.689,47.641,73.383L47.641,73.383z"
   fill="#231F20" />
	</g>
</g>
<g
   id="g359">
	<path
   id="path353"
   d="M43.208,85.314c-2.758,0.919-3.088,5.791-3.088,8.549c1.839,0.307,3.854,0.186,5.387,0.186   c-0.308,0.918-0.767,2.834-1.074,3.446c4.904-1.53,4.123,4.501,5.656,7.872c0-2.146,2.467-0.288,3.998-1.514   c1.227,4.598,2.145,1.072,4.213,4.75c1.227-0.307,4.062-2.604,5.594-2.91c-0.307,1.533,0.307,2.451-1.227,3.984   c2.451-0.613,4.605,2.266,6.074-0.354l2.334-0.167c3.984,1.533,6.455-0.857,9.213-3.922c3.678-3.984,4.287-3.244,6.537-14.494"
   fill="#FFFFFF" />
	<g
   id="g357">
		<path
   id="path355"
   d="M41.653,85.316c-3.334,1.779-3.534,5.68-3.586,9.098c0.078,0.129,0.195,0.196,0.354,0.2    c3.149,0.354,5.417-0.685,3.993,3.265c-0.228,0.631,1.388,0.338,1.615,0.291c2.94-0.611,3.321,5.947,4.007,7.748    c0.307,0.805,3.852-0.221,4.072-0.936c-1.793,0.094-1.918,0.117-0.373,0.068c0.318-0.004,0.632-0.039,0.943-0.102    c0.907-0.173,1.726-0.545,2.572-0.9c-1.072,0.117-2.145,0.236-3.217,0.354c0.99,3.033,2.557,2.3,4.213,4.75    c0.508,0.75,2.625-0.112,3.217-0.354c1.795-0.736,3.293-2.086,5.118-2.725c-0.914,0.057-1.828,0.112-2.741,0.168    c-0.154,1.541-0.244,2.562-1.191,3.819c-0.268,0.354,0.552,0.397,0.671,0.392c3.778-0.18,6.459,1.86,9.44-1.516    c-0.976,0.378-1.953,0.757-2.929,1.135c2.351-0.168,4.382,0.443,6.778-0.002c2.646-0.492,4.89-2.177,6.673-4.111    c1.659-1.8,3.614-3.478,4.828-5.633c1.681-2.986,2.092-6.83,2.768-10.137c0.054-0.264-3.862-0.096-4.106,1.102    c-1.213,5.944-2.235,9.781-6.332,14.143c-2.553,2.718-5.043,2.871-8.424,3.113c-1.826,0.131-2.903,0.719-4.084,2.055    c0.625-0.311,1.25-0.622,1.873-0.934c-0.369,0.094-2.058-0.85-2.59-0.824c0.617-0.03,0.703-3.414,0.732-3.701    c0.059-0.59-2.561,0.105-2.741,0.168c-2.185,0.762-3.948,2.229-6.069,3.097c1.072-0.118,2.146-0.237,3.217-0.354    c-1.428-2.113-3.377-2.19-4.213-4.75c-0.252-0.775-2.809,0.184-3.217,0.354c0.975-0.409-2.031,0.037-2.556,0.22    c-1.263,0.44-1.89,0.562-2.298,1.875c1.357-0.312,2.715-0.623,4.072-0.936c-1.728-4.539-1.196-9.266-7.306-7.996    c0.539,0.096,1.077,0.193,1.615,0.29c0.41-1.136,0.729-2.291,1.073-3.446c0.117-0.39-0.405-0.396-0.67-0.393    c-1.816,0.021-4.741,0.5-4.609-2.043c0.105-2.021,0.477-4.825,2.518-5.916C46.473,84.4,42.338,84.949,41.653,85.316L41.653,85.316    z"
   fill="#231F20" />
	</g>
</g>
<g
   id="g367">
	
		<path
   id="path361"
   d="   M63.869,96.244c-2.153-1.191-2.354-1.971-3.61-3.502l-0.058-0.203c-2.035,0.137-4.394,0.199-6.331-0.836   c0,0-3.564,5.596,1.607,8.607C60.1,102.998,63.869,96.244,63.869,96.244z"
   stroke-miterlimit="10"
   stroke-linejoin="round"
   stroke-linecap="round"
   stroke-width="1.6636"
   stroke="#231F20"
   fill="#F7BED7" />
	
		<path
   id="path363"
   d="   M70.313,97.262c0,0-8.416,2.395-9.918-4.447l-0.055-0.201c-9.443,1.377-8.443-5.29-8.443-5.29"
   stroke-miterlimit="10"
   stroke-linejoin="round"
   stroke-linecap="round"
   stroke-width="2.126"
   stroke="#231F20"
   fill="#FFFFFF" />
	
		<path
   id="path365"
   d="   M60.172,93.4c0,0-2.207,1.172-3.496,4.758"
   stroke-miterlimit="10"
   stroke-linejoin="round"
   stroke-linecap="round"
   stroke-width="1.1091"
   stroke="#231F20"
   fill="#F7BED7" />
</g>
<g
   id="g373">
	<path
   id="path369"
   d="M63.29,92.795c5.574,0.867,12.021-7.315,1.201-11.896c-9.396-4.101-12.781,6.899-5.254,10.735   C59.238,91.635,61.553,92.648,63.29,92.795z"
   fill="#231F20" />
	<path
   id="path371"
   d="M63.746,82.652c-2.944-1.139-5.646-1.254-6.03-0.26c-0.185,0.477,0.2,1.121,0.971,1.787   c0.274-0.323,0.879-0.412,1.475-0.182c0.697,0.27,1.113,0.867,0.932,1.338c-0.045,0.115-0.025,0.25,0.035,0.387   c0.389,0.188,0.797,0.367,1.227,0.533c0.433,0.166,0.854,0.307,1.269,0.43c0.138-0.059,0.24-0.145,0.287-0.262   c0.181-0.472,0.892-0.633,1.588-0.363c0.597,0.229,0.983,0.701,0.972,1.127c1.017,0.021,1.733-0.196,1.918-0.672   C68.768,85.52,66.692,83.789,63.746,82.652z"
   fill="#6F7072" />
</g>
<g
   id="g395">
	
		<ellipse
   id="ellipse375"
   ry="6.436"
   rx="5.516"
   cy="65.061"
   cx="60.281"
   stroke-miterlimit="10"
   stroke-width="0.7721"
   stroke="#FFFFFF"
   fill="#231F20" />
	<g
   id="g381">
		<g
   id="g379">
			<path
   id="path377"
   d="M59.709,59.354c3.53-0.17,6.27,2.008,6.337,5.605c0.099,5.262-5.44,7.731-9.919,7.666     c-0.357-0.004-2.021,0.688-1.158,0.699c4.967,0.073,10.787-1.619,12.533-6.818c1.654-4.924-2.518-8.053-7.016-7.836     C60.038,58.691,58.539,59.41,59.709,59.354L59.709,59.354z"
   fill="#231F20" />
		</g>
	</g>
	
		<ellipse
   id="ellipse383"
   ry="5.517"
   rx="6.435"
   cy="77.567"
   cx="85.599"
   stroke-miterlimit="10"
   stroke-width="0.7721"
   stroke="#FFFFFF"
   fill="#231F20"
   transform="matrix(-0.8133 0.5819 -0.5819 -0.8133 200.3498 90.8381)" />
	<g
   id="g389">
		<g
   id="g387">
			<path
   id="path385"
   d="M79.889,83.127c-1.324-3.236-2.316-7.716,0.853-10.244c2.494-1.99,6.258-0.588,8.244,1.426     c0.366,0.371,2.024-0.275,1.663-0.643c-2.557-2.593-6.705-3.289-9.995-1.701c-4.679,2.258-4.242,7.478-2.54,11.637     C78.322,84.112,80.063,83.553,79.889,83.127L79.889,83.127z"
   fill="#231F20" />
		</g>
	</g>
	<ellipse
   id="ellipse391"
   ry="1.832"
   rx="1.736"
   cy="63.07"
   cx="61.086"
   fill="#FFFFFF" />
	
		<ellipse
   id="ellipse393"
   ry="1.735"
   rx="1.832"
   cy="75.759"
   cx="86.74"
   fill="#FFFFFF"
   transform="matrix(-0.813 0.5822 -0.5822 -0.813 201.3698 86.8548)" />
</g>


<path
   id="path405"
   d="M39.034,57.375c0.25-1.875,0.216-3.125,1.716-7c1.377-3.559,1-6.25,1.125-6.625s-1.579,3.349-2.5,5.375  c-1.25,2.75-3.125,5.875-3.75,9.25C35.102,61.202,39.5,64.5,39.5,64.5S38.784,59.25,39.034,57.375z"
   fill="#231F20" />
<path
   id="path407"
   d="M116.167,89.666c0,0-0.167-5.166,1.667-8.666c1.074-2.051-4.167,1.833-5.667,8.333  C110.792,95.289,116.167,89.666,116.167,89.666z"
   fill="#231F20" />
</svg>
